PathFileType	4	(X/Y/Z)	D:\Share\Shared_Data\Ergonomics\Sit To Stand Pertubation\S3\Perturbed.trc
DataRate	CameraRate	NumFrames	NumMarkers	Units	OrigDataRate	OrigDataStartFrame	OrigNumFrames	
100	100	14	18	m	100	11550	211
Frame#	Time	R_ASIS			R_Pelvis			V_Sacral			L_Pelvis			L_ASIS			Clavical			R_Acromium			L_Acromium			Sternum			Torso			R_Thigh_Med			R_Thigh_Lat			R_Thigh			R_Shank_Med			R_Shank_Lat			R_Shank			R_Heel			R_Toe			
		X1	Y1	Z1	X2	Y2	Z2	X3	Y3	Z3	X4	Y4	Z4	X5	Y5	Z5	X6	Y6	Z6	X7	Y7	Z7	X8	Y8	Z8	X9	Y9	Z9	X10	Y10	Z10	X11	Y11	Z11	X12	Y12	Z12	X13	Y13	Z13	X14	Y14	Z14	X15	Y15	Z15	X16	Y16	Z16	X17	Y17	Z17	X18	Y18	Z18	

11550	115.49	0.054528797	0.61444446	0.15157327	-0.056212566	0.64766565	0.20392828	-0.15516452	0.68401538	0.014713316	-0.043770683	0.66804071	-0.19419893	0.06064481	0.624073	-0.13925697	0.2419566	0.95322247	0.0067559719	0.24591109	1.0204283	0.17201495	0.24483952	1.0225289	-0.14313158	0.22275981	0.87043127	0.0098297091	0.23630664	0.93614984	-0.055239071	0.35220663	0.46903909	0.076382515	0.33776349	0.4493956	0.19333238	0.17404597	0.57940784	0.10264651	0.2948551	0.1072262	0.091544998	0.28694312	0.08929908	0.17160953	0.2913598	0.27116223	0.19892522	0.2215464	0.056937122	0.13391656	0.4382551	0.056774605	0.11217276
11551	115.5	0.058964264	0.61357904	0.1514324	-0.051118145	0.64921954	0.20404562	-0.14992268	0.68747821	0.014923597	-0.039404575	0.66975861	-0.19448018	0.064314667	0.62310547	-0.14005231	0.25148157	0.94985205	0.0068760643	0.25773785	1.0171741	0.17140459	0.25694913	1.0190933	-0.14230527	0.23161258	0.86728839	0.0099558401	0.24591005	0.93292999	-0.054741692	0.35363736	0.46996063	0.07824437	0.33888358	0.4488725	0.19450226	0.17601376	0.58027734	0.10324519	0.29500952	0.1071249	0.091447144	0.29081824	0.08602697	0.17024417	0.2919494	0.27079648	0.19934415	0.22158562	0.056877724	0.13377158	0.43842719	0.056676796	0.11221825
11552	115.51	0.063605988	0.61292896	0.15115143	-0.045663559	0.65092554	0.20420169	-0.14448866	0.69096051	0.015179103	-0.034853489	0.67157617	-0.19477805	0.068045685	0.62223749	-0.14080383	0.26095123	0.94662573	0.0069776001	0.26959552	1.0140114	0.17064714	0.26901453	1.0157932	-0.14139886	0.24022586	0.86424628	0.010038363	0.25551227	0.92987201	-0.054187717	0.35524493	0.47101059	0.080102074	0.3402081	0.44827255	0.19554704	0.17827679	0.58125348	0.10398142	0.2952244	0.10700708	0.091334358	0.29503506	0.082513069	0.16875343	0.29267722	0.27039514	0.19969318	0.22163458	0.056814034	0.13361513	0.43863513	0.056558353	0.11227674
11553	115.52	0.06842028	0.61252722	0.15075626	-0.039907112	0.65278033	0.20440668	-0.13891165	0.69443225	0.015481034	-0.030128048	0.67346033	-0.19507181	0.071825775	0.62149451	-0.14145908	0.27029999	0.94356696	0.0070563426	0.28138043	1.0109687	0.16973277	0.28095224	1.0126636	-0.14041695	0.24852969	0.86132886	0.010054799	0.26502286	0.92699371	-0.053603001	0.35701447	0.47201331	0.081795822	0.34176062	0.44761166	0.19640265	0.18083629	0.58230743	0.10483031	0.29549899	0.10687613	0.091211708	0.29857697	0.079610695	0.16744202	0.29354587	0.26997049	0.19994563	0.22169232	0.056747482	0.13345544	0.43886954	0.056422489	0.11234972
11554	115.53	0.07336544	0.6123996	0.15028903	-0.033927555	0.65477368	0.2046651	-0.1332429	0.69786578	0.015824099	-0.025245655	0.67537512	-0.19534344	0.075654076	0.62091486	-0.14197667	0.27946042	0.94070428	0.0071085477	0.29296887	1.0080881	0.16866739	0.2926731	1.0097457	-0.13936993	0.25650729	0.85857672	0.0099972334	0.27432693	0.92431421	-0.053038429	0.35894284	0.47278543	0.083124481	0.34356665	0.4469126	0.19700641	0.18368315	0.58340332	0.10574026	0.29582559	0.1067355	0.091082306	0.30008969	0.078427032	0.16670393	0.29455487	0.26954077	0.20007573	0.22175758	0.056679874	0.13330144	0.43911725	0.056273022	0.11243557
11555	115.54	0.078394714	0.61256244	0.14980473	-0.027816633	0.65688733	0.20497531	-0.12753262	0.70123761	0.016197441	-0.020231295	0.67728705	-0.1955811	0.079538528	0.62054456	-0.14233128	0.28836752	0.93807324	0.0071313086	0.30422974	1.005426	0.16747601	0.30408633	1.0070912	-0.13827576	0.26417725	0.85604626	0.0098720255	0.28330557	0.9218606	-0.052561436	0.36104578	0.47320105	0.083935425	0.34564896	0.44619962	0.19730258	0.18680046	0.5845047	0.10663448	0.29619019	0.10658762	0.090945534	0.2988898	0.079488266	0.16674226	0.29570224	0.2691268	0.20005896	0.22182825	0.056612053	0.13315962	0.4393649	0.056113998	0.11252889
11556	115.55	0.083461853	0.613021	0.14936368	-0.021669794	0.65909564	0.20532907	-0.12182806	0.70453137	0.01658674	-0.015116998	0.67917157	-0.19578026	0.083491554	0.62042285	-0.14251653	0.29696301	0.93571802	0.0071230431	0.31503989	1.0030521	0.16620218	0.31510535	1.0047641	-0.13716028	0.27157254	0.85380798	0.0096962271	0.29187039	0.91967688	-0.052226292	0.3633508	0.47320697	0.084165123	0.34802142	0.44549338	0.19724826	0.19016928	0.58558142	0.10742252	0.2965759	0.10643381	0.090797096	0.29566998	0.082180923	0.16737903	0.29698544	0.2687489	0.19987364	0.22190096	0.056542912	0.13303166	0.43960208	0.055949932	0.11262171
11557	115.56	0.088524612	0.61376825	0.14902049	-0.015577735	0.66136786	0.20571332	-0.11617239	0.70773889	0.016977222	-0.0099401608	0.68101849	-0.19594327	0.087524055	0.62056836	-0.14254445	0.30519922	0.93368976	0.007083848	0.32529816	1.0010451	0.16490369	0.32565527	1.0028397	-0.13605479	0.27872604	0.85194519	0.0094944544	0.29997653	0.91782446	-0.052057701	0.36588239	0.47279379	0.083810883	0.35068307	0.44480545	0.19681836	0.19377464	0.58661322	0.10801804	0.29696704	0.10627477	0.090630287	0.29177704	0.085374771	0.16824956	0.29840063	0.26842371	0.19950372	0.22197169	0.056469547	0.13291443	0.43982208	0.055785248	0.11270583
11558	115.57	0.093545525	0.61478632	0.14881265	-0.0096195097	0.66367444	0.20611494	-0.1106036	0.71086444	0.017358448	-0.004740777	0.68283472	-0.19607555	0.091639702	0.62097766	-0.14243993	0.31304132	0.93204395	0.0070155134	0.33493628	0.99948566	0.16364465	0.33567651	1.0013976	-0.13499242	0.28566257	0.8505473	0.0092958317	0.30761008	0.9163714	-0.052061325	0.3686492	0.47196768	0.08289502	0.35361441	0.44413583	0.19600865	0.19761073	0.58759222	0.10835568	0.29735086	0.10611121	0.090438042	0.28820575	0.088258926	0.16907384	0.2999404	0.26816135	0.19894276	0.22203664	0.056388367	0.13280167	0.44002155	0.055623249	0.11277457
11559	115.58	0.098494514	0.61605328	0.14875328	-0.0038555958	0.66599438	0.20652475	-0.10515282	0.71392627	0.017728592	0.00044099021	0.68464429	-0.19618251	0.095831001	0.62163696	-0.14223193	0.32046753	0.93083667	0.0069214821	0.34392181	0.99844983	0.162485	0.34512573	1.0005126	-0.13400336	0.29239694	0.84969836	0.0091292267	0.31478638	0.91538324	-0.052220604	0.37163907	0.4707402	0.081451187	0.35677979	0.44347452	0.19483614	0.20167876	0.58852295	0.10840268	0.29771863	0.10594389	0.090214439	0.28540784	0.090490349	0.16970987	0.30159064	0.26796335	0.19819601	0.22209276	0.056296803	0.132687	0.44019891	0.055465931	0.11282359
11560	115.59	0.10335356	0.61755005	0.14883067	0.0016788431	0.66832062	0.20693654	-0.09984137	0.71695618	0.01809243	0.0055656381	0.68648517	-0.19626875	0.1000787	0.62253656	-0.14194807	0.32746753	0.93012238	0.0068066754	0.35225406	0.99800177	0.16146959	0.35397528	1.0002468	-0.13310997	0.29893597	0.84946088	0.0090162687	0.32154907	0.91491809	-0.052488571	0.37481982	0.46913464	0.079527649	0.36013226	0.44280685	0.19333702	0.20597514	0.58941931	0.10816389	0.29806464	0.10577345	0.089955666	0.28348013	0.092027687	0.17010677	0.30333014	0.2678241	0.19728009	0.22213855	0.056195107	0.13256654	0.44035446	0.055314762	0.11285067
11561	115.6	0.10811883	0.61926685	0.14901424	0.0069766922	0.67066321	0.20734445	-0.094678291	0.71999493	0.018453997	0.010594616	0.68840582	-0.19633607	0.10435433	0.62367657	-0.14161455	0.33404053	0.92995233	0.0066766872	0.35995609	0.9981889	0.16062115	0.3622131	1.0006456	-0.13232404	0.30528049	0.84986798	0.0089657001	0.32794376	0.91502423	-0.052809635	0.37814285	0.4672077	0.077201118	0.363617	0.44211755	0.19156326	0.21048155	0.59029822	0.10767889	0.29838501	0.1056001	0.089660446	0.28232349	0.092980293	0.17026834	0.30513358	0.26773358	0.19622089	0.22217403	0.056087574	0.1324413	0.44048987	0.055171368	0.1128552
11562	115.61	0.11279906	0.62120636	0.14926445	0.01205594	0.67305261	0.20774162	-0.089660126	0.72308881	0.018813694	0.015491329	0.69045776	-0.19637984	0.10862501	0.62506799	-0.141258	0.34019247	0.9303728	0.0065366821	0.36706552	0.99903992	0.15993854	0.36984134	1.0017377	-0.13164757	0.31142441	0.85092798	0.0089729385	0.3339942	0.91573944	-0.053144012	0.38154868	0.46507385	0.074590935	0.36717224	0.44139322	0.18957933	0.21516519	0.59117798	0.10700979	0.29867694	0.10542407	0.089330528	0.28176053	0.0934944	0.17022948	0.3069754	0.26767981	0.19505128	0.22220078	0.055983578	0.13231935	0.44060779	0.0550373	0.11283756
11563	115.62	0.11741219	0.62338135	0.14954074	0.016954145	0.67553693	0.20812091	-0.084773216	0.72628778	0.019173803	0.020222769	0.69269135	-0.19638818	0.11285829	0.6267298	-0.14090594	0.34593433	0.93142413	0.0063906751	0.37362747	1.0005671	0.15940031	0.3768725	1.0035363	-0.13107597	0.31735553	0.85263568	0.0090236635	0.33970206	0.91709167	-0.053469711	0.38497189	0.46289633	0.071852135	0.37073483	0.44062643	0.18745802	0.21998474	0.59207751	0.10622437	0.29893948	0.1052467	0.088971107	0.28160767	0.093695503	0.17004092	0.30883243	0.26765033	0.19380972	0.22222163	0.055897633	0.13221684	0.44071103	0.054913616	0.11279913
